<?xml version="1.0" standalone="no"?>
<!DOCTYPE svg PUBLIC "-//W3C//DTD SVG 20010904//EN"
 "http://www.w3.org/TR/2001/REC-SVG-20010904/DTD/svg10.dtd">
<svg version="1.0" xmlns="http://www.w3.org/2000/svg"
 width="2048.000000pt" height="2048.000000pt" viewBox="0 0 2048.000000 2048.000000"
 preserveAspectRatio="xMidYMid meet">

<g transform="translate(0.000000,2048.000000) scale(0.100000,-0.100000)"
fill="#000000" stroke="none">
<path d="M6560 13843 c-1071 -31 -2058 -523 -2724 -1358 -324 -406 -561 -886
-680 -1379 -127 -521 -142 -976 -51 -1501 92 -534 336 -1096 663 -1530 162
-214 389 -451 596 -621 446 -365 919 -597 1496 -733 443 -105 1013 -112 1485
-19 736 144 1357 508 1918 1123 149 163 153 168 272 320 271 345 574 820 895
1405 62 113 125 228 140 255 15 28 57 104 93 170 75 139 194 356 294 535 311
557 530 893 806 1240 124 156 431 462 557 557 373 279 708 420 1150 483 126
18 462 24 600 11 407 -40 790 -169 1127 -382 637 -401 1063 -1057 1179 -1814
26 -171 26 -561 0 -730 -60 -388 -198 -748 -407 -1060 -379 -567 -959 -961
-1609 -1094 -376 -77 -713 -74 -1095 7 -90 19 -282 80 -342 107 -17 8 -35 15
-40 15 -10 0 -164 78 -243 122 -64 37 -214 136 -280 186 -154 116 -399 360
-544 540 -32 39 -63 72 -70 72 -6 0 -38 -24 -72 -52 -33 -29 -140 -120 -239
-203 -379 -319 -460 -388 -463 -396 -7 -17 211 -263 392 -444 475 -474 969
-769 1543 -921 152 -40 436 -94 496 -94 23 0 69 -5 102 -10 153 -26 681 -8
900 30 33 6 85 15 115 20 160 28 443 111 640 190 884 352 1602 1052 1978 1930
116 269 222 646 256 910 86 658 12 1266 -230 1870 -104 262 -278 568 -453 799
-31 41 -65 86 -76 100 -39 52 -235 268 -302 332 -676 654 -1559 1010 -2503
1009 -890 0 -1650 -282 -2310 -858 -82 -72 -330 -318 -400 -397 -297 -336
-600 -770 -909 -1305 -105 -180 -137 -238 -313 -560 -511 -931 -566 -1029
-726 -1290 -576 -936 -1097 -1428 -1746 -1645 -197 -66 -365 -96 -641 -115
-134 -10 -188 -9 -330 4 -258 25 -352 42 -540 98 -984 293 -1707 1156 -1820
2173 -27 244 -15 570 30 790 60 297 190 627 341 865 199 315 517 634 814 817
66 41 249 143 257 143 2 0 36 15 76 34 217 103 501 177 792 206 146 15 476 8
620 -14 383 -58 701 -180 1010 -389 266 -180 551 -463 804 -802 98 -131 274
-389 326 -478 15 -26 32 -46 39 -44 6 2 51 75 99 163 49 87 103 186 121 219
53 94 160 277 257 436 49 81 89 152 89 158 0 16 -176 249 -306 406 -146 177
-480 509 -639 635 -604 479 -1248 717 -2030 749 -88 3 -194 5 -235 4z"/>
<path d="M10786 9404 c-112 -36 -204 -119 -260 -234 -29 -60 -31 -73 -31 -170
1 -96 3 -111 31 -170 45 -95 110 -162 202 -207 74 -37 79 -38 186 -38 106 0
114 1 178 34 128 64 213 179 238 319 31 173 -69 361 -236 443 -57 28 -77 32
-162 35 -69 3 -111 -1 -146 -12z"/>
</g>
</svg>
